# xmcd
#
# Track frame offsets:
#       150
#       16556
#       29083
#       42864
#       55386
#       68975
#       84439
#       97535
#       112251
#       126237
#       139956
#       153482
#       167248
#       185259
#       196910
#       219236
#
# Disc length: 3133 seconds
#
# Revision: 0
# Processed by: cddbd v1.5.2PL0 Copyright (c) Steve Scherf et al.
# Submitted via: WaveLab 4.01
#
DISCID=d90c3b10
DTITLE=Everton and Tiago - Chave de Cadeia
DYEAR=2010
DGENRE=Sertanejo
TTITLE0=Rindo a toa
TTITLE1=Metida
TTITLE2=Tem jeito não
TTITLE3=Sem você nao vivo
TTITLE4=Chave de cadeia
TTITLE5=Fiz tudo errado
TTITLE6=Amor adolescente
TTITLE7=Ta chovendo mulher
TTITLE8=Te dou o meu amor
TTITLE9=Meu amor de verdade
TTITLE10=Fim da linha
TTITLE11=Pensando em nos dois
TTITLE12=Medley dePagodes de viola
TTITLE13=Eu vou pro cabaré
TTITLE14=Medley de Guarânias
TTITLE15=Tchau e bença
EXTD=
EXTT0=
EXTT1=
EXTT2=
EXTT3=
EXTT4=
EXTT5=
EXTT6=
EXTT7=
EXTT8=
EXTT9=
EXTT10=
EXTT11=
EXTT12=
EXTT13=
EXTT14=
EXTT15=
PLAYORDER=
